<?xml version="1.0" encoding="UTF-8"?>
<svg id="Layer_2" data-name="Layer 2" xmlns="http://www.w3.org/2000/svg" viewBox="0 0 3761.67 1005.21">
  <defs>
    <style>
      .cls-1 {
        fill: #fff;
      }
    </style>
  </defs>
  <g id="logo-mark_dark" data-name="logo-mark dark">
    <g id="logo_full" data-name="logo full">
      <g>
        <g id="icon">
          <path class="cls-1" d="m986.5,419.6h0c-20.16,0-36.5,16.34-36.5,36.5v166.45c0,5.42-3.79,10.26-9.14,11.14-6.88,1.14-12.86-4.17-12.86-10.85V223.3c0-44.45-34.2-81.98-78.56-84.79-48.77-3.09-89.44,35.71-89.44,83.83v540.02c0,5.42-3.79,10.26-9.14,11.14-6.88,1.14-12.86-4.17-12.86-10.85V117.74c0-44.45-34.2-81.98-78.56-84.79-48.77-3.09-89.44,35.71-89.44,83.83v532.95c0,5.42-3.79,10.26-9.14,11.14-6.88,1.14-12.86-4.17-12.86-10.85V84.96c0-44.45-34.2-81.98-78.56-84.79-48.77-3.09-89.44,35.71-89.44,83.83v507.58c0,5.42-3.79,10.26-9.14,11.14-6.88,1.14-12.86-4.17-12.86-10.85V172.19c0-44.45-34.2-81.98-78.56-84.79-48.77-3.09-89.44,35.71-89.44,83.83v327.57c0,5.42-3.79,10.26-9.14,11.14-6.88,1.14-12.86-4.17-12.86-10.85v-215.84c0-44.45-34.2-81.98-78.56-84.79C40.67,195.38,0,234.18,0,282.3v100.88c0,20.16,16.34,36.5,36.5,36.5h0c20.16,0,36.5-16.34,36.5-36.5v-100.57c0-5.42,3.79-10.26,9.14-11.14,6.88-1.14,12.86,4.17,12.86,10.85v215.8c0,44.45,34.2,81.98,78.56,84.79,48.77,3.09,89.44-35.71,89.44-83.83V171.53c0-5.42,3.79-10.26,9.14-11.14,6.88-1.14,12.86,4.17,12.86,10.85v419.66c0,44.45,34.2,81.98,78.56,84.79,48.77,3.09,89.44-35.71,89.44-83.83V84.31c0-5.42,3.79-10.26,9.14-11.14,6.88-1.14,12.86,4.17,12.86,10.85v565.05c0,44.45,34.2,81.98,78.56,84.79,48.77,3.09,89.44-35.71,89.44-83.83V117.09c0-5.42,3.79-10.26,9.14-11.14,6.88-1.14,12.86,4.17,12.86,10.85v644.91c0,44.45,34.2,81.98,78.56,84.79,48.77,3.09,89.44-35.71,89.44-83.83V222.7c0-5.42,3.79-10.26,9.14-11.14,6.88-1.14,12.86,4.17,12.86,10.85v399.45c0,44.45,34.2,81.98,78.56,84.79,48.77,3.09,89.44-35.71,89.44-83.83v-.85h0v-165.87c0-20.16-16.34-36.5-36.5-36.5Z"/>
          <circle class="cls-1" cx="748.76" cy="949.38" r="55.83"/>
        </g>
        <g>
          <path class="cls-1" d="m1450.45,728.18c-13.94-32.33-35.68-50.73-59.09-50.73-105.37,0-177.28-74.15-177.28-199.03s71.92-199.03,177.28-199.03,177.28,74.15,177.28,199.03c0,76.38-27.88,134.91-76.93,167.81,21.19,12.82,44.04,34.57,44.04,61.33,0,23.42-16.17,46.83-46.27,46.83-17.28,0-31.78-8.36-39.02-26.2Zm37.35-249.76c0-73.59-32.89-115.4-96.45-115.4s-97,41.81-97,115.4,32.89,115.4,97,115.4,96.45-41.81,96.45-115.4Z"/>
          <path class="cls-1" d="m1613.8,573.75v-166.69c0-21.18,18.96-38.47,39.02-38.47s39.03,17.28,39.03,38.47v146.62c0,25.09,10.59,41.25,39.58,41.25,30.66,0,56.86-20.63,56.86-47.39v-140.49c0-21.18,17.84-38.47,39.02-38.47s38.47,17.28,38.47,38.47v170.59l5.02,62.44c1.67,20.07-13.94,37.35-37.35,37.35-18.4,0-34.56-13.94-35.68-32.89l-3.34-46.27h-3.9c-8.92,56.86-49.62,79.17-89.2,79.17-53.52,0-87.53-35.12-87.53-103.69Z"/>
          <path class="cls-1" d="m1915.96,584.34c0-54.63,35.68-88.64,98.12-88.64,49.62,0,70.24,26.2,79.16,45.71h1.67v-44.6c0-32.89-23.42-47.39-54.08-47.39-25.09,0-36.24,8.36-44.6,18.4-8.36,10.04-15.61,21.19-35.68,21.19-23.42,0-36.24-16.17-36.24-37.91,0-56.31,66.34-81.95,123.76-81.95,73.59,0,124.32,30.1,124.32,120.42v104.25l5.02,40.7c3.35,22.86-15.05,42.93-37.91,42.93-20.63,0-35.12-13.94-37.91-34.01l-3.9-32.89h-3.9c-10.03,40.14-37.91,65.79-90.31,65.79s-87.53-29.55-87.53-91.99Zm181.19-3.34c0-16.72-27.32-24.53-52.96-24.53-30.1,0-52.4,6.13-52.4,24.53s22.3,24.53,52.4,24.53c25.65,0,52.96-7.81,52.96-24.53Z"/>
          <path class="cls-1" d="m2231.5,638.98v-166.69l-4.46-65.79c-1.12-20.63,13.94-37.91,36.79-37.91,18.96,0,35.12,14.5,36.24,33.45l2.23,44.04h4.46c8.92-56.86,49.62-79.16,88.64-79.16,53.52,0,87.53,34.56,87.53,103.69v168.36c0,21.18-18.4,38.47-39.02,38.47s-38.47-17.28-38.47-38.47v-148.85c0-25.09-11.15-41.25-40.14-41.25-30.66,0-56.31,21.18-56.31,47.39v142.72c0,21.18-17.84,38.47-39.02,38.47s-38.47-17.28-38.47-38.47Z"/>
          <path class="cls-1" d="m2553.73,575.98v-120.42l-11.15,1.12c-21.18,1.67-37.91-17.28-37.91-39.58,0-23.42,16.73-40.14,37.91-39.58l13.38.56v-35.12c-.56-21.18,17.28-37.35,37.91-37.35,21.74,0,39.03,17.84,37.91,40.7l-1.12,31.78,40.14-1.12c21.74-.56,37.91,17.28,37.91,40.14,0,18.4-16.17,41.25-37.91,40.14l-39.02-1.67v99.23c0,25.09,10.59,35.12,22.86,35.12,9.48,0,17.28-3.34,25.09-8.36,5.58-3.34,10.04-5.02,15.05-5.02,13.38,0,23.97,15.05,23.97,34.56,0,43.49-39.58,66.34-83.07,66.34s-81.95-23.42-81.95-101.46Z"/>
          <path class="cls-1" d="m3005.86,601.07c0,50.17-66.34,76.38-122.09,76.38-85.3,0-141.6-54.08-141.6-152.75s57.42-156.1,138.82-156.1c88.64,0,133.8,55.19,133.8,126.55,0,36.79-17.84,51.85-55.19,51.85h-138.82c5.57,34.56,36.79,49.62,67.46,49.62,25.65,0,40.7-10.59,55.19-19.51,9.48-6.13,18.4-11.15,30.1-11.15,16.17,0,32.33,12.27,32.33,35.12Zm-186.2-106.48l119.3-2.79c-.56-24.53-21.18-50.17-57.98-50.17-30.66,0-56.31,17.28-61.32,52.96Z"/>
          <path class="cls-1" d="m3119.04,286.08c14.5,0,27.32,11.15,27.32,25.65v327.25c0,21.18-18.4,38.47-39.02,38.47s-38.47-17.28-38.47-38.47v-267.6c-25.09,0-42.37-18.96-42.37-42.93s16.72-42.37,40.14-42.37h52.4Z"/>
          <path class="cls-1" d="m3273.46,286.08c14.5,0,27.32,11.15,27.32,25.65v327.25c0,21.18-18.4,38.47-39.02,38.47s-38.47-17.28-38.47-38.47v-267.6c-25.09,0-42.37-18.96-42.37-42.93s16.72-42.37,40.14-42.37h52.4Z"/>
          <path class="cls-1" d="m3424.54,374.73c13.94,0,27.32,11.15,27.32,25.65v238.61c0,21.18-18.4,38.47-39.02,38.47s-38.47-17.28-38.47-38.47v-178.96c-25.09,0-42.37-18.96-42.37-42.93s16.73-42.37,40.14-42.37h52.41Zm-62.44-71.92c0-27.32,15.61-46.27,46.83-46.27s46.83,19.51,46.83,46.27-16.17,45.16-46.83,45.16-46.83-18.95-46.83-45.16Z"/>
          <path class="cls-1" d="m3499.81,584.34c0-54.63,35.68-88.64,98.12-88.64,49.62,0,70.24,26.2,79.16,45.71h1.67v-44.6c0-32.89-23.42-47.39-54.08-47.39-25.09,0-36.24,8.36-44.6,18.4-8.36,10.04-15.61,21.19-35.68,21.19-23.42,0-36.24-16.17-36.24-37.91,0-56.31,66.34-81.95,123.76-81.95,73.59,0,124.32,30.1,124.32,120.42v104.25l5.02,40.7c3.34,22.86-15.05,42.93-37.91,42.93-20.63,0-35.12-13.94-37.91-34.01l-3.9-32.89h-3.9c-10.04,40.14-37.91,65.79-90.31,65.79s-87.53-29.55-87.53-91.99Zm181.19-3.34c0-16.72-27.32-24.53-52.96-24.53-30.1,0-52.4,6.13-52.4,24.53s22.3,24.53,52.4,24.53c25.65,0,52.96-7.81,52.96-24.53Z"/>
        </g>
      </g>
    </g>
  </g>
</svg>