<?xml version="1.0" encoding="UTF-8"?>
<svg id="Layer_2" data-name="Layer 2" xmlns="http://www.w3.org/2000/svg" viewBox="0 0 1446.7 1422.23">
  <defs>
    <style>
      .cls-1 {
        fill: #212121;
      }
    </style>
  </defs>
  <g id="logo-mark_light" data-name="logo-mark light">
    <g id="logo_icon" data-name="logo icon">
      <g id="logomark-light">
        <path class="cls-1" d="m1395.08,593.66h0c-28.51,0-51.61,23.11-51.61,51.61v235.43c0,8.1-6,15.19-14.06,15.94-9.25.87-17.06-6.41-17.06-15.49V316.09c0-65.4-52.22-119.66-117.62-120.3-66.03-.64-119.96,52.89-119.96,118.78v763.87c0,8.1-6,15.19-14.06,15.94-9.25.87-17.06-6.41-17.06-15.49V166.68c0-65.4-52.22-119.66-117.62-120.3-66.04-.64-119.96,52.89-119.96,118.78v753.95c0,8.1-6,15.19-14.06,15.94-9.25.87-17.06-6.41-17.06-15.49V120.3C774.96,54.9,722.74.64,657.35,0c-66.03-.64-119.96,52.89-119.96,118.78v718.04c0,8.1-6,15.19-14.06,15.94-9.25.87-17.06-6.41-17.06-15.49V243.7c0-65.4-52.22-119.66-117.62-120.3-66.03-.64-119.96,52.89-119.96,118.78v463.39c0,8.1-6,15.19-14.06,15.94-9.25.87-17.06-6.41-17.06-15.49v-305.22c0-65.4-52.22-119.66-117.62-120.3C53.92,279.88,0,333.41,0,399.3v142.75c0,28.51,23.11,51.61,51.61,51.61h0c28.51,0,51.61-23.11,51.61-51.61v-142.29c0-8.1,6-15.19,14.06-15.94,9.25-.87,17.06,6.41,17.06,15.49v305.22c0,65.4,52.22,119.66,117.62,120.3,66.03.64,119.96-52.89,119.96-118.78V242.65c0-8.1,6-15.19,14.06-15.94,9.25-.87,17.06,6.41,17.06,15.49v593.58c0,65.4,52.22,119.66,117.62,120.3,66.03.64,119.96-52.89,119.96-118.78V119.24c0-8.1,6-15.19,14.06-15.94,9.25-.87,17.06,6.41,17.06,15.49v799.27c0,65.4,52.22,119.66,117.62,120.3,66.04.64,119.96-52.89,119.96-118.78V165.62c0-8.1,6-15.19,14.06-15.94,9.25-.87,17.06,6.41,17.06,15.49v912.23c0,65.4,52.22,119.66,117.62,120.3,66.04.64,119.96-52.89,119.96-118.78V315.03c0-8.1,6-15.19,14.06-15.94,9.25-.87,17.06,6.41,17.06,15.49v565.07c0,65.4,52.22,119.66,117.62,120.3,66.03.64,119.96-52.89,119.96-118.78v-1.34h0v-234.55c0-28.51-23.11-51.61-51.61-51.61Z"/>
        <circle class="cls-1" cx="1059.21" cy="1343.23" r="79"/>
      </g>
    </g>
  </g>
</svg>