<?xml version="1.0" encoding="UTF-8"?>
<svg id="Layer_2" data-name="Layer 2" xmlns="http://www.w3.org/2000/svg" viewBox="0 0 3743.94 1005.07">
  <defs>
    <style>
      .cls-1 {
        fill: #fff;
      }
    </style>
  </defs>
  <g id="logo-mark_dark" data-name="logo-mark dark">
    <g id="logo_full" data-name="logo full">
      <g>
        <g id="icon">
          <path class="cls-1" d="m985.89,419.53h0c-20.14,0-36.48,16.33-36.48,36.48v166.38c0,5.72-4.24,10.73-9.94,11.27-6.54.62-12.06-4.53-12.06-10.95V223.38c0-46.22-36.9-84.56-83.12-85.01-46.67-.45-84.77,37.38-84.77,83.94v539.82c0,5.72-4.24,10.73-9.94,11.27-6.54.62-12.06-4.53-12.06-10.95V117.79c0-46.22-36.9-84.56-83.12-85.01-46.67-.45-84.77,37.38-84.77,83.94v532.8c0,5.72-4.24,10.73-9.94,11.27-6.54.62-12.06-4.53-12.06-10.95V85.02C547.66,38.8,510.75.45,464.54,0c-46.67-.45-84.77,37.38-84.77,83.94v507.43c0,5.72-4.24,10.73-9.94,11.27-6.54.62-12.06-4.53-12.06-10.95V172.22c0-46.22-36.9-84.56-83.12-85.01-46.67-.45-84.77,37.38-84.77,83.94v327.47c0,5.72-4.24,10.73-9.94,11.27-6.54.62-12.06-4.53-12.06-10.95v-215.69c0-46.22-36.9-84.56-83.12-85.01C38.11,197.79,0,235.62,0,282.18v100.88c0,20.14,16.33,36.47,36.47,36.47h0c20.14,0,36.47-16.33,36.47-36.47v-100.55c0-5.72,4.24-10.73,9.94-11.27,6.54-.62,12.06,4.53,12.06,10.95v215.69c0,46.22,36.9,84.56,83.12,85.01,46.67.45,84.77-37.38,84.77-83.94V171.47c0-5.72,4.24-10.73,9.94-11.27,6.54-.62,12.06,4.53,12.06,10.95v419.47c0,46.22,36.9,84.56,83.12,85.01,46.67.45,84.77-37.38,84.77-83.94V84.27c0-5.72,4.24-10.73,9.94-11.27,6.54-.62,12.06,4.53,12.06,10.95v564.83c0,46.22,36.9,84.56,83.12,85.01,46.67.45,84.77-37.38,84.77-83.94V117.04c0-5.72,4.24-10.73,9.94-11.27,6.54-.62,12.06,4.53,12.06,10.95v644.66c0,46.22,36.9,84.56,83.12,85.01,46.67.45,84.77-37.38,84.77-83.94V222.63c0-5.72,4.24-10.73,9.94-11.27,6.54-.62,12.06,4.53,12.06,10.95v399.33c0,46.22,36.9,84.56,83.12,85.01,46.67.45,84.77-37.38,84.77-83.94v-.95h0v-165.75c0-20.14-16.33-36.48-36.48-36.48Z"/>
          <circle class="cls-1" cx="748.53" cy="949.24" r="55.83"/>
        </g>
        <g>
          <path class="cls-1" d="m1268.48,670.62c-21.74,0-39.58-18.96-39.58-42.37v-299.93c0-23.97,17.84-42.37,39.58-42.37h166.13c22.3,0,41.25,19.51,41.25,43.49s-18.96,42.93-41.25,42.93h-126.55v63.55l75.82-4.46c12.82-.56,22.3-1.12,28.99-1.12,20.63,0,35.12,17.28,35.12,38.47s-15.05,39.03-35.68,39.03l-28.43-1.12-75.82-3.35v81.39h132.68c21.74,0,41.25,18.96,41.25,43.48s-19.51,42.37-41.25,42.37h-172.27Z"/>
          <path class="cls-1" d="m1505.97,518.42c0-91.99,53.52-149.97,138.26-149.97,51.85,0,113.17,28.43,113.17,72.47,0,18.96-15.61,37.91-34.57,37.91-11.71,0-20.07-7.8-28.99-14.5-12.26-8.92-25.64-17.28-46.27-17.28-33.45,0-65.78,14.5-65.78,74.7,0,56.31,33.45,74.71,69.13,74.71,18.4,0,31.78-7.25,45.71-17.28,10.04-7.25,18.96-12.27,30.66-12.27,21.18,0,33.45,20.63,33.45,37.91,0,36.24-51.29,72.47-113.17,72.47-86.97,0-141.6-53.52-141.6-158.89Z"/>
          <path class="cls-1" d="m1805.35,638.84v-321.12c0-21.74,18.4-38.47,39.02-38.47s38.47,16.72,38.47,38.47v47.39c0,21.18-3.9,59.65-7.25,81.95h5.02c9.48-57.42,50.17-79.16,89.2-79.16,54.08,0,87.53,34.56,87.53,103.69v167.25c0,21.18-18.4,38.47-39.02,38.47s-39.02-17.28-39.02-38.47v-147.74c0-25.09-10.59-41.25-39.58-41.25-30.66,0-56.87,20.63-56.87,47.39v141.6c0,21.18-17.28,38.47-39.02,38.47s-38.47-17.28-38.47-38.47Z"/>
          <path class="cls-1" d="m2100.82,521.21c0-90.87,46.83-154.43,138.26-154.43s138.82,63.55,138.82,154.43-46.83,156.1-138.82,156.1-138.26-65.23-138.26-156.1Zm204.04-.56c0-50.73-22.86-73.03-65.23-73.03s-65.78,22.3-65.78,73.03,22.86,75.82,65.23,75.82,65.78-23.42,65.78-75.82Z"/>
          <path class="cls-1" d="m2544.58,635.5v-279.86c0-46.83,23.97-76.38,66.9-76.38,38.47,0,60.21,19.51,71.92,64.67l61.88,233.59,60.77-233.59c11.15-42.93,36.79-64.67,71.36-64.67,41.25,0,66.9,30.1,66.9,69.69v286.55c0,23.42-15.05,41.81-37.91,41.81s-39.02-18.4-39.02-41.81v-255.33h-1.67l-70.24,253.1c-7.8,28.43-25.64,44.04-50.17,44.04s-44.04-15.05-51.29-41.81l-70.8-255.33h-1.12v255.33c0,23.42-14.5,41.81-37.91,41.81s-39.58-18.4-39.58-41.81Z"/>
          <path class="cls-1" d="m3075.88,374.59c13.94,0,27.32,11.15,27.32,25.65v238.61c0,21.18-18.4,38.47-39.03,38.47s-38.47-17.28-38.47-38.47v-178.96c-25.09,0-42.37-18.96-42.37-42.93s16.73-42.37,40.14-42.37h52.41Zm-62.44-71.92c0-27.32,15.61-46.27,46.83-46.27s46.83,19.51,46.83,46.27-16.17,45.16-46.83,45.16-46.83-18.95-46.83-45.16Z"/>
          <path class="cls-1" d="m3166.19,638.84v-166.69l-4.46-65.79c-1.12-20.63,13.94-37.91,36.79-37.91,18.95,0,35.12,14.5,36.24,33.45l2.23,44.04h4.46c8.92-56.86,49.62-79.16,88.64-79.16,53.52,0,87.53,34.56,87.53,103.69v168.36c0,21.18-18.4,38.47-39.02,38.47s-38.47-17.28-38.47-38.47v-148.85c0-25.09-11.15-41.25-40.14-41.25-30.66,0-56.31,21.18-56.31,47.39v142.72c0,21.18-17.84,38.47-39.02,38.47s-38.47-17.28-38.47-38.47Z"/>
          <path class="cls-1" d="m3463.9,523.44c0-110.38,55.19-155.54,110.38-155.54,42.93,0,75.82,27.88,81.39,88.08h6.69c-1.12-26.76-1.12-54.08-1.12-80.84v-56.86c0-21.74,17.28-39.02,39.03-39.02s38.47,17.28,38.47,39.02v269.27l5.02,48.5c2.23,22.86-16.72,41.25-38.47,41.25s-36.79-15.61-38.47-36.79l-3.9-53.52h-3.9c-11.71,63.55-50.17,90.31-98.68,90.31-53.52-1.67-96.45-44.04-96.45-153.87Zm199.03.56c0-42.37-19.51-66.9-64.11-66.9-35.68,0-59.09,17.84-59.09,67.46s23.97,67.46,59.65,67.46c45.71,0,63.55-20.63,63.55-68.01Z"/>
        </g>
      </g>
    </g>
  </g>
</svg>